<svg xmlns="http://www.w3.org/2000/svg" viewBox="0 0 240 60">
  <style>
    .logo-text { font-family: 'Montserrat', sans-serif; font-weight: bold; }
    .primary { fill: #ffd700; }
    .accent { fill: #e6be00; }
    .light { fill: #e2e8f0; }
  </style>
  
  <!-- Icon -->
  <g transform="translate(10, 10)">
    <path class="primary" d="M30,0 C13.4315,0 0,13.4315 0,30 C0,46.5685 13.4315,60 30,60 C46.5685,60 60,46.5685 60,30 C60,13.4315 46.5685,0 30,0 Z M30,10 C41.0457,10 50,18.9543 50,30 C50,41.0457 41.0457,50 30,50 C18.9543,50 10,41.0457 10,30 C10,18.9543 18.9543,10 30,10 Z"/>
    <path class="accent" d="M30,15 C21.7157,15 15,21.7157 15,30 C15,38.2843 21.7157,45 30,45 C38.2843,45 45,38.2843 45,30 C45,21.7157 38.2843,15 30,15 Z M30,20 C35.5228,20 40,24.4772 40,30 C40,35.5228 35.5228,40 30,40 C24.4772,40 20,35.5228 20,30 C20,24.4772 24.4772,20 30,20 Z"/>
    <circle class="primary" cx="30" cy="30" r="5"/>
  </g>
  
  <!-- Text -->
  <text x="80" y="38" class="logo-text light" font-size="24">
    Arbab<tspan class="primary">Jobs</tspan>
  </text>
</svg>
